<svg width="24" height="24" viewBox="0 0 24 24" fill="none" xmlns="http://www.w3.org/2000/svg">
<g id="group">
<mask id="mask0_1075_11587" style="mask-type:alpha" maskUnits="userSpaceOnUse" x="0" y="0" width="24" height="24">
<rect id="Bounding box" width="24" height="24" fill="#D9D9D9"/>
</mask>
<g mask="url(#mask0_1075_11587)">
<path id="group_2" d="M2.59766 18.6154V16.9692C2.59766 16.5051 2.71785 16.1061 2.95823 15.7721C3.19861 15.4382 3.52166 15.1712 3.92736 14.9714C4.79474 14.5584 5.65599 14.2292 6.51111 13.9837C7.36624 13.7381 8.39509 13.6154 9.59766 13.6154C10.8002 13.6154 11.8291 13.7381 12.6842 13.9837C13.5393 14.2292 14.4006 14.5584 15.268 14.9714C15.6737 15.1712 15.9967 15.4382 16.2371 15.7721C16.4775 16.1061 16.5977 16.5051 16.5977 16.9692V18.6154H2.59766ZM18.5977 18.6154V16.9231C18.5977 16.3436 18.4804 15.7966 18.2458 15.2821C18.0112 14.7676 17.6785 14.3261 17.2477 13.9577C17.7387 14.0577 18.2118 14.1965 18.6669 14.374C19.122 14.5516 19.572 14.7513 20.0169 14.9731C20.4502 15.191 20.79 15.4699 21.0361 15.8098C21.2823 16.1497 21.4054 16.5208 21.4054 16.9231V18.6154H18.5977ZM9.59766 11.3846C8.77266 11.3846 8.06641 11.0909 7.47891 10.5034C6.89141 9.91589 6.59766 9.20964 6.59766 8.38464C6.59766 7.55962 6.89141 6.85336 7.47891 6.26586C8.06641 5.67836 8.77266 5.38461 9.59766 5.38461C10.4227 5.38461 11.1289 5.67836 11.7164 6.26586C12.3039 6.85336 12.5977 7.55962 12.5977 8.38464C12.5977 9.20964 12.3039 9.91589 11.7164 10.5034C11.1289 11.0909 10.4227 11.3846 9.59766 11.3846ZM16.8669 8.38464C16.8669 9.20964 16.5732 9.91589 15.9857 10.5034C15.3982 11.0909 14.6919 11.3846 13.8669 11.3846C13.8246 11.3846 13.7707 11.3798 13.7054 11.3702C13.64 11.3606 13.5861 11.35 13.5438 11.3385C13.8826 10.9236 14.1429 10.4633 14.3248 9.95761C14.5067 9.45195 14.5977 8.92682 14.5977 8.38224C14.5977 7.83767 14.5025 7.31731 14.3121 6.82116C14.1217 6.32501 13.8656 5.86155 13.5438 5.43076C13.5977 5.41155 13.6515 5.39905 13.7054 5.39326C13.7592 5.3875 13.8131 5.38461 13.8669 5.38461C14.6919 5.38461 15.3982 5.67836 15.9857 6.26586C16.5732 6.85336 16.8669 7.55962 16.8669 8.38464ZM3.59766 17.6154H15.5977V16.9692C15.5977 16.7346 15.539 16.5295 15.4217 16.3539C15.3044 16.1782 15.0938 16.0103 14.79 15.85C14.0438 15.4513 13.2573 15.1458 12.4304 14.9337C11.6034 14.7215 10.6592 14.6154 9.59766 14.6154C8.53612 14.6154 7.59189 14.7215 6.76496 14.9337C5.93804 15.1458 5.15151 15.4513 4.40536 15.85C4.10151 16.0103 3.89092 16.1782 3.77361 16.3539C3.65631 16.5295 3.59766 16.7346 3.59766 16.9692V17.6154ZM9.59766 10.3846C10.1477 10.3846 10.6185 10.1888 11.0102 9.79714C11.4018 9.40547 11.5977 8.93464 11.5977 8.38464C11.5977 7.83464 11.4018 7.36381 11.0102 6.97214C10.6185 6.58047 10.1477 6.38464 9.59766 6.38464C9.04766 6.38464 8.57682 6.58047 8.18516 6.97214C7.79349 7.36381 7.59766 7.83464 7.59766 8.38464C7.59766 8.93464 7.79349 9.40547 8.18516 9.79714C8.57682 10.1888 9.04766 10.3846 9.59766 10.3846Z" fill="#1C1B1F"/>
</g>
</g>
</svg>
