<svg width="24" height="24" viewBox="0 0 24 24" fill="none" xmlns="http://www.w3.org/2000/svg">
<g id="social_leaderboard">
<mask id="mask0_1075_4038" style="mask-type:alpha" maskUnits="userSpaceOnUse" x="0" y="0" width="24" height="24">
<rect id="Bounding box" width="24" height="24" fill="#D9D9D9"/>
</mask>
<g mask="url(#mask0_1075_4038)">
<path id="Union" fill-rule="evenodd" clip-rule="evenodd" d="M5.39933 5.30001L8.49932 11.475C8.49928 11.475 8.49924 11.475 8.49919 11.475L5.39922 5.30001H5.39933ZM11.9993 10.2999L11.9993 10.3L14.4993 5.30001H14.4992L11.9993 10.2999ZM17.3414 19.6235C17.0716 19.6745 16.7909 19.7 16.4993 19.7C16.2826 19.7 16.0743 19.6875 15.8743 19.6625C15.6743 19.6375 15.4826 19.5917 15.2993 19.525C15.2993 19.525 15.2993 19.525 15.2993 19.525C15.4826 19.5917 15.6742 19.6375 15.8742 19.6625C16.0742 19.6875 16.2826 19.7 16.4992 19.7C16.7909 19.7 17.0716 19.6745 17.3414 19.6235ZM13.1428 20.5779C12.7763 20.6593 12.3951 20.7 11.9993 20.7C11.366 20.7 10.7701 20.6 10.2118 20.4C9.65348 20.2 9.14932 19.9083 8.69932 19.525C8.69929 19.525 8.69926 19.525 8.69923 19.525C9.14923 19.9083 9.65339 20.2 10.2117 20.4C10.7701 20.6 11.3659 20.7 11.9992 20.7C12.3951 20.7 12.7762 20.6593 13.1428 20.5779ZM5.23712 5.20001L8.31903 11.339C8.21738 11.3207 8.11572 11.3039 8.01405 11.2886C7.84207 11.2628 7.66209 11.25 7.47422 11.25C6.29757 11.25 5.28884 11.669 4.45351 12.5043C3.61818 13.3396 3.19922 14.3484 3.19922 15.525C3.19922 16.7017 3.61818 17.7104 4.45351 18.5457C5.28884 19.3811 6.29757 19.8 7.47422 19.8C7.69474 19.8 7.91122 19.7873 8.12363 19.7618C8.31848 19.7384 8.50348 19.6973 8.67844 19.6383C9.12646 20.0112 9.62648 20.2966 10.178 20.4942C10.7479 20.6983 11.3552 20.8 11.9992 20.8C12.6437 20.8 13.2515 20.694 13.8217 20.4812C14.3719 20.2759 14.8711 19.9948 15.3186 19.6378C15.4928 19.697 15.674 19.7383 15.8618 19.7617C16.0662 19.7873 16.2787 19.8 16.4992 19.8C17.6921 19.8 18.7093 19.3814 19.5449 18.5457C20.3806 17.7101 20.7992 16.6929 20.7992 15.5C20.7992 14.3071 20.3806 13.2899 19.5449 12.4543C18.7093 11.6187 17.6921 11.2 16.4992 11.2C16.3292 11.2 16.1632 11.2085 16.0013 11.2256C15.9094 11.2352 15.8189 11.2476 15.7296 11.2628L18.761 5.20001H14.4374L11.9992 10.0764L9.56102 5.20001H5.23712ZM10.9578 15.8649L10.3394 17.9168L11.9992 16.6508L13.659 17.9168L13.0407 15.8649L14.7121 14.675H12.6487L11.9992 12.5006L11.3497 14.675H9.28631L10.9578 15.8649ZM10.5243 17.6499L11.0743 15.825L9.59935 14.775H9.59922L11.0742 15.825L10.5242 17.65L10.5243 17.6499ZM11.4242 14.775L11.9992 12.85L11.9993 12.8502L11.4243 14.775H11.4242ZM13.4742 17.6499L11.9993 16.525L11.9993 16.525L13.4742 17.65L13.4742 17.6499ZM15.116 18.6168C14.26 19.4728 13.223 19.9 11.9992 19.9C10.7754 19.9 9.73846 19.4728 8.88243 18.6168C8.0264 17.7608 7.59922 16.7238 7.59922 15.5C7.59922 14.2762 8.0264 13.2393 8.88243 12.3832C9.73846 11.5272 10.7754 11.1 11.9992 11.1C13.223 11.1 14.26 11.5272 15.116 12.3832C15.972 13.2393 16.3992 14.2762 16.3992 15.5C16.3992 16.7238 15.972 17.7608 15.116 18.6168ZM10.1018 10.5563C9.77163 10.6792 9.4587 10.8367 9.16318 11.0288L6.71067 6.10001H8.98773L11.0997 10.2759C10.7572 10.3427 10.4246 10.4362 10.1018 10.5563ZM9.1243 11.175C9.15205 11.156 9.17996 11.1373 9.20802 11.119C9.50025 10.928 9.80982 10.7717 10.1367 10.65C10.2999 10.5893 10.4656 10.5355 10.6339 10.4886C10.4656 10.5355 10.2999 10.5893 10.1368 10.65C9.77848 10.7833 9.44098 10.9583 9.12432 11.175L9.1243 11.175ZM11.2492 10.35C11.2492 10.35 11.2493 10.35 11.2493 10.35L9.04932 5.99999H6.54932L6.54933 6.00001H9.04922L11.2492 10.35ZM14.9493 6.00001H17.4742L14.8743 11.1749C14.8743 11.175 14.8743 11.175 14.8743 11.175L17.4743 5.99999H14.9493L14.9493 6.00001ZM14.8356 11.0291L17.3121 6.10001H15.0107L12.8988 10.2759C13.2412 10.3427 13.5738 10.4362 13.8966 10.5563C14.2269 10.6792 14.54 10.8368 14.8356 11.0291ZM7.76591 18.8629C7.66867 18.871 7.57144 18.875 7.47422 18.875C6.5337 18.875 5.73841 18.5478 5.08243 17.8918C4.42645 17.2358 4.09922 16.4405 4.09922 15.5C4.09922 14.5595 4.42645 13.7642 5.08243 13.1082C5.73841 12.4522 6.5337 12.125 7.47422 12.125C7.57144 12.125 7.66867 12.1291 7.76591 12.1372C7.80496 12.1404 7.84402 12.1443 7.88308 12.1489C7.5303 12.5889 7.25039 13.0774 7.04342 13.614C6.81382 14.2093 6.69922 14.8382 6.69922 15.5C6.69922 16.1618 6.81382 16.7907 7.04342 17.386C7.25039 17.9226 7.53031 18.4111 7.88309 18.8511C7.84402 18.8557 7.80497 18.8596 7.76591 18.8629ZM7.77422 12.0375C7.83547 12.0426 7.89672 12.0493 7.95797 12.0575C7.99672 12.0627 8.03547 12.0686 8.07422 12.075C8.04888 12.1046 8.0239 12.1344 7.99927 12.1644C7.63498 12.6084 7.34747 13.1036 7.13672 13.65C6.91172 14.2333 6.79922 14.85 6.79922 15.5C6.79922 16.15 6.91172 16.7667 7.13672 17.35C7.34747 17.8964 7.63499 18.3916 7.99927 18.8356C8.0239 18.8657 8.04888 18.8954 8.07421 18.925C8.07425 18.925 8.07428 18.925 8.07432 18.925C7.67432 18.4583 7.36182 17.9333 7.13682 17.35C6.91182 16.7667 6.79932 16.15 6.79932 15.5C6.79932 14.85 6.91182 14.2333 7.13682 13.65C7.36182 13.0667 7.67432 12.5417 8.07432 12.075C7.97432 12.0583 7.87432 12.0458 7.77432 12.0375C7.67432 12.0292 7.57432 12.025 7.47432 12.025C7.16278 12.025 6.86638 12.06 6.58513 12.1302C6.86635 12.0601 7.16271 12.025 7.47422 12.025C7.57422 12.025 7.67422 12.0292 7.77422 12.0375ZM18.916 17.8918C18.26 18.5478 17.4647 18.875 16.5242 18.875C16.427 18.875 16.3298 18.871 16.2325 18.8629C16.1935 18.8596 16.1544 18.8557 16.1154 18.8511C16.4681 18.4111 16.748 17.9226 16.955 17.386C17.1846 16.7907 17.2992 16.1618 17.2992 15.5C17.2992 14.8382 17.1846 14.2093 16.955 13.614C16.748 13.0774 16.4681 12.5889 16.1154 12.1489C16.1544 12.1443 16.1935 12.1404 16.2325 12.1372C16.3298 12.1291 16.427 12.125 16.5242 12.125C17.4647 12.125 18.26 12.4522 18.916 13.1082C19.572 13.7642 19.8992 14.5595 19.8992 15.5C19.8992 16.4405 19.572 17.2358 18.916 17.8918ZM17.5502 18.8326C18.086 18.6744 18.5649 18.3844 18.9868 17.9625C19.6618 17.2875 19.9993 16.4667 19.9993 15.5C19.9993 14.5333 19.6618 13.7125 18.9868 13.0375C18.3118 12.3625 17.491 12.025 16.5243 12.025C16.4243 12.025 16.3243 12.0292 16.2243 12.0375C16.1243 12.0458 16.0243 12.0583 15.9243 12.075C15.9243 12.075 15.9243 12.075 15.9243 12.075C15.963 12.0685 16.0018 12.0627 16.0405 12.0575C16.1017 12.0493 16.163 12.0426 16.2242 12.0375C16.3242 12.0292 16.4242 12.025 16.5242 12.025C17.4909 12.025 18.3117 12.3625 18.9867 13.0375C19.6617 13.7125 19.9992 14.5333 19.9992 15.5C19.9992 16.4667 19.6617 17.2875 18.9867 17.9625C18.5648 18.3844 18.086 18.6744 17.5502 18.8326ZM13.462 19.7728C13.2804 19.8333 13.0936 19.8817 12.9016 19.918L13.462 19.7728Z" fill="#1C1B1F"/>
</g>
</g>
</svg>
