<svg width="24" height="24" viewBox="0 0 24 24" fill="none" xmlns="http://www.w3.org/2000/svg">
<g id="widgets">
<mask id="mask0_1075_4088" style="mask-type:alpha" maskUnits="userSpaceOnUse" x="0" y="0" width="24" height="24">
<rect id="Bounding box" width="24" height="24" fill="#D9D9D9"/>
</mask>
<g mask="url(#mask0_1075_4088)">
<path id="widgets_2" d="M16.3057 11.9615L12.0787 7.73461L16.3057 3.50766L20.5326 7.73461L16.3057 11.9615ZM4.61719 10.6154V4.61536H10.6172V10.6154H4.61719ZM13.3864 19.3846V13.3846H19.3864V19.3846H13.3864ZM4.61719 19.3846V13.3846H10.6172V19.3846H4.61719ZM5.61719 9.61536H9.61719V5.61536H5.61719V9.61536ZM16.3307 10.5846L19.1557 7.75961L16.3307 4.93461L13.5057 7.75961L16.3307 10.5846ZM14.3864 18.3846H18.3864V14.3846H14.3864V18.3846ZM5.61719 18.3846H9.61719V14.3846H5.61719V18.3846Z" fill="#1C1B1F"/>
</g>
</g>
</svg>
